<svg width="20" height="20" viewBox="0 0 20 20" fill="none" xmlns="http://www.w3.org/2000/svg">
<path d="M17.8667 9.20836L10.2083 16.8667C9.27014 17.8049 7.99766 18.332 6.67084 18.332C5.34402 18.332 4.07154 17.8049 3.13334 16.8667C2.19514 15.9285 1.66806 14.656 1.66806 13.3292C1.66806 12.0024 2.19514 10.7299 3.13334 9.79169L10.275 2.65003C10.9005 2.02345 11.7492 1.67101 12.6346 1.67023C13.5199 1.66945 14.3693 2.02039 14.9958 2.64586C15.6224 3.27133 15.9749 4.12009 15.9756 5.00541C15.9764 5.89074 15.6255 6.74012 15 7.36669L7.84167 14.5084C7.52894 14.8211 7.10478 14.9968 6.66251 14.9968C6.22023 14.9968 5.79608 14.8211 5.48334 14.5084C5.17061 14.1956 4.99491 13.7715 4.99491 13.3292C4.99491 12.8869 5.17061 12.4628 5.48334 12.15L12.5583 5.08336" stroke="#949494" stroke-width="2" stroke-linecap="round" stroke-linejoin="round"/>
</svg>
